<mxfile host="app.diagrams.net" agent="Mozilla/5.0 (Windows NT 10.0; Win64; x64) AppleWebKit/537.36 (KHTML, like Gecko) Chrome/136.0.0.0 Safari/537.36" version="26.2.14">
  <diagram name="第 1 页" id="5q7YUH1xV3czbWhoYx5j">
    <mxGraphModel dx="1199" dy="671" grid="1" gridSize="10" guides="1" tooltips="1" connect="1" arrows="1" fold="1" page="1" pageScale="1" pageWidth="827" pageHeight="1169" math="0" shadow="0">
      <root>
        <mxCell id="0" />
        <mxCell id="1" parent="0" />
        <mxCell id="tpT4GvcqYD3kFjs_G-T5-1" value="" style="rounded=0;orthogonalLoop=1;jettySize=auto;html=1;endArrow=none;startFill=0;" edge="1" parent="1" source="tpT4GvcqYD3kFjs_G-T5-3" target="tpT4GvcqYD3kFjs_G-T5-4">
          <mxGeometry relative="1" as="geometry" />
        </mxCell>
        <mxCell id="tpT4GvcqYD3kFjs_G-T5-2" value="" style="edgeStyle=none;rounded=0;orthogonalLoop=1;jettySize=auto;html=1;endArrow=none;startFill=0;" edge="1" parent="1" source="tpT4GvcqYD3kFjs_G-T5-3" target="tpT4GvcqYD3kFjs_G-T5-6">
          <mxGeometry relative="1" as="geometry" />
        </mxCell>
        <mxCell id="tpT4GvcqYD3kFjs_G-T5-3" value="&lt;font style=&quot;color: rgb(0, 0, 0); font-size: 18px;&quot;&gt;A&lt;/font&gt;" style="ellipse;whiteSpace=wrap;html=1;aspect=fixed;fillColor=#66B2FF;" vertex="1" parent="1">
          <mxGeometry x="110" y="140" width="40" height="40" as="geometry" />
        </mxCell>
        <mxCell id="tpT4GvcqYD3kFjs_G-T5-12" style="rounded=0;orthogonalLoop=1;jettySize=auto;html=1;exitX=1;exitY=0.5;exitDx=0;exitDy=0;entryX=0.5;entryY=0;entryDx=0;entryDy=0;endArrow=none;startFill=0;" edge="1" parent="1" source="tpT4GvcqYD3kFjs_G-T5-4" target="tpT4GvcqYD3kFjs_G-T5-10">
          <mxGeometry relative="1" as="geometry" />
        </mxCell>
        <mxCell id="tpT4GvcqYD3kFjs_G-T5-4" value="&lt;font style=&quot;color: rgb(0, 0, 0); font-size: 18px;&quot;&gt;B&lt;/font&gt;" style="ellipse;whiteSpace=wrap;html=1;aspect=fixed;fillColor=#66B2FF;" vertex="1" parent="1">
          <mxGeometry x="220" y="140" width="40" height="40" as="geometry" />
        </mxCell>
        <mxCell id="tpT4GvcqYD3kFjs_G-T5-5" value="" style="edgeStyle=none;rounded=0;orthogonalLoop=1;jettySize=auto;html=1;endArrow=none;startFill=0;" edge="1" parent="1" source="tpT4GvcqYD3kFjs_G-T5-6" target="tpT4GvcqYD3kFjs_G-T5-8">
          <mxGeometry relative="1" as="geometry" />
        </mxCell>
        <mxCell id="tpT4GvcqYD3kFjs_G-T5-6" value="&lt;font style=&quot;color: rgb(0, 0, 0); font-size: 18px;&quot;&gt;D&lt;/font&gt;" style="ellipse;whiteSpace=wrap;html=1;aspect=fixed;fillColor=#66B2FF;" vertex="1" parent="1">
          <mxGeometry x="110" y="260" width="40" height="40" as="geometry" />
        </mxCell>
        <mxCell id="tpT4GvcqYD3kFjs_G-T5-7" value="" style="edgeStyle=orthogonalEdgeStyle;rounded=0;orthogonalLoop=1;jettySize=auto;html=1;endArrow=none;startFill=0;" edge="1" parent="1" source="tpT4GvcqYD3kFjs_G-T5-8" target="tpT4GvcqYD3kFjs_G-T5-4">
          <mxGeometry relative="1" as="geometry" />
        </mxCell>
        <mxCell id="tpT4GvcqYD3kFjs_G-T5-13" style="rounded=0;orthogonalLoop=1;jettySize=auto;html=1;entryX=0.5;entryY=1;entryDx=0;entryDy=0;endArrow=none;startFill=0;" edge="1" parent="1" source="tpT4GvcqYD3kFjs_G-T5-8" target="tpT4GvcqYD3kFjs_G-T5-10">
          <mxGeometry relative="1" as="geometry" />
        </mxCell>
        <mxCell id="tpT4GvcqYD3kFjs_G-T5-8" value="&lt;font style=&quot;color: rgb(0, 0, 0); font-size: 18px;&quot;&gt;C&lt;/font&gt;" style="ellipse;whiteSpace=wrap;html=1;aspect=fixed;fillColor=#66B2FF;" vertex="1" parent="1">
          <mxGeometry x="220" y="260" width="40" height="40" as="geometry" />
        </mxCell>
        <mxCell id="tpT4GvcqYD3kFjs_G-T5-9" value="&lt;font style=&quot;font-size: 18px;&quot;&gt;有权图&lt;/font&gt;" style="text;html=1;align=center;verticalAlign=middle;whiteSpace=wrap;rounded=0;" vertex="1" parent="1">
          <mxGeometry x="175" y="90" width="130" height="30" as="geometry" />
        </mxCell>
        <mxCell id="tpT4GvcqYD3kFjs_G-T5-10" value="&lt;span style=&quot;font-size: 18px;&quot;&gt;E&lt;/span&gt;" style="ellipse;whiteSpace=wrap;html=1;aspect=fixed;fillColor=#66B2FF;" vertex="1" parent="1">
          <mxGeometry x="320" y="200" width="40" height="40" as="geometry" />
        </mxCell>
        <mxCell id="tpT4GvcqYD3kFjs_G-T5-11" value="为边添加“权重”变量，就是有权图。&lt;div&gt;有权图分为有权&lt;span style=&quot;background-color: transparent; color: light-dark(rgb(0, 0, 0), rgb(255, 255, 255));&quot;&gt;有向&lt;/span&gt;&lt;span style=&quot;background-color: transparent; color: light-dark(rgb(0, 0, 0), rgb(255, 255, 255));&quot;&gt;图和有权&lt;/span&gt;&lt;span style=&quot;background-color: transparent; color: light-dark(rgb(0, 0, 0), rgb(255, 255, 255));&quot;&gt;无向&lt;/span&gt;&lt;span style=&quot;background-color: transparent; color: light-dark(rgb(0, 0, 0), rgb(255, 255, 255));&quot;&gt;图。&lt;/span&gt;&lt;/div&gt;" style="text;html=1;align=left;verticalAlign=middle;whiteSpace=wrap;rounded=0;fontSize=12;" vertex="1" parent="1">
          <mxGeometry x="100" y="330" width="280" height="30" as="geometry" />
        </mxCell>
        <mxCell id="tpT4GvcqYD3kFjs_G-T5-14" value="3" style="text;html=1;align=center;verticalAlign=middle;whiteSpace=wrap;rounded=0;" vertex="1" parent="1">
          <mxGeometry x="160" y="130" width="60" height="30" as="geometry" />
        </mxCell>
        <mxCell id="tpT4GvcqYD3kFjs_G-T5-16" value="2" style="text;html=1;align=center;verticalAlign=middle;whiteSpace=wrap;rounded=0;" vertex="1" parent="1">
          <mxGeometry x="220" y="205" width="60" height="30" as="geometry" />
        </mxCell>
        <mxCell id="tpT4GvcqYD3kFjs_G-T5-17" value="5" style="text;html=1;align=center;verticalAlign=middle;whiteSpace=wrap;rounded=0;" vertex="1" parent="1">
          <mxGeometry x="160" y="250" width="60" height="30" as="geometry" />
        </mxCell>
        <mxCell id="tpT4GvcqYD3kFjs_G-T5-18" value="6" style="text;html=1;align=center;verticalAlign=middle;whiteSpace=wrap;rounded=0;" vertex="1" parent="1">
          <mxGeometry x="90" y="205" width="60" height="30" as="geometry" />
        </mxCell>
        <mxCell id="tpT4GvcqYD3kFjs_G-T5-19" value="7" style="text;html=1;align=center;verticalAlign=middle;whiteSpace=wrap;rounded=0;" vertex="1" parent="1">
          <mxGeometry x="270" y="260" width="60" height="30" as="geometry" />
        </mxCell>
        <mxCell id="tpT4GvcqYD3kFjs_G-T5-20" value="8" style="text;html=1;align=center;verticalAlign=middle;whiteSpace=wrap;rounded=0;" vertex="1" parent="1">
          <mxGeometry x="270" y="150" width="60" height="30" as="geometry" />
        </mxCell>
      </root>
    </mxGraphModel>
  </diagram>
</mxfile>
